<?xml version="1.0" encoding="UTF-8" standalone="no"?>
<!DOCTYPE svg PUBLIC "-//W3C//DTD SVG 1.1//EN" "http://www.w3.org/Graphics/SVG/1.1/DTD/svg11.dtd">
<svg width="100%" height="100%" viewBox="0 0 1540 600" version="1.1" xmlns="http://www.w3.org/2000/svg" xmlns:xlink="http://www.w3.org/1999/xlink" xml:space="preserve" xmlns:serif="http://www.serif.com/" style="fill-rule:evenodd;clip-rule:evenodd;stroke-linejoin:round;stroke-miterlimit:2;">
    <g transform="matrix(1,0,0,1,-29.9992,-10.4636)">
        <g transform="matrix(3.01016,0,0,3.01016,-1170.16,-752.473)">
            <g transform="matrix(50,0,0,50,407.554,446.46)">
                <path d="M0.276,0.012C0.233,0.012 0.195,-0 0.162,-0.025C0.129,-0.049 0.104,-0.082 0.086,-0.125C0.068,-0.167 0.059,-0.216 0.059,-0.271C0.059,-0.326 0.068,-0.375 0.086,-0.417C0.104,-0.46 0.13,-0.493 0.162,-0.517C0.195,-0.541 0.233,-0.553 0.276,-0.553C0.308,-0.553 0.335,-0.547 0.358,-0.536C0.381,-0.524 0.401,-0.508 0.417,-0.488C0.433,-0.469 0.445,-0.447 0.453,-0.424L0.457,-0.424L0.457,-0.728L0.501,-0.728L0.501,-0L0.458,-0L0.458,-0.119L0.453,-0.119C0.445,-0.096 0.432,-0.074 0.417,-0.054C0.401,-0.034 0.381,-0.018 0.358,-0.006C0.335,0.006 0.307,0.012 0.276,0.012ZM0.281,-0.029C0.317,-0.029 0.349,-0.04 0.375,-0.061C0.402,-0.082 0.422,-0.111 0.436,-0.148C0.45,-0.184 0.457,-0.226 0.457,-0.272C0.457,-0.318 0.45,-0.359 0.436,-0.395C0.422,-0.432 0.402,-0.46 0.375,-0.481C0.349,-0.502 0.317,-0.512 0.281,-0.512C0.244,-0.512 0.212,-0.502 0.186,-0.48C0.159,-0.459 0.139,-0.431 0.125,-0.394C0.111,-0.358 0.104,-0.317 0.104,-0.272C0.104,-0.226 0.111,-0.185 0.125,-0.149C0.139,-0.112 0.159,-0.083 0.186,-0.062C0.212,-0.04 0.244,-0.029 0.281,-0.029Z" style="fill:rgb(101,101,101);fill-rule:nonzero;"/>
            </g>
            <g transform="matrix(50,0,0,50,437.127,446.46)">
                <path d="M0.09,-0L0.09,-0.546L0.134,-0.546L0.134,-0L0.09,-0ZM0.112,-0.659C0.103,-0.659 0.094,-0.662 0.087,-0.669C0.08,-0.676 0.076,-0.684 0.076,-0.693C0.076,-0.703 0.08,-0.711 0.087,-0.718C0.094,-0.725 0.103,-0.728 0.112,-0.728C0.122,-0.728 0.13,-0.725 0.137,-0.718C0.144,-0.711 0.148,-0.703 0.148,-0.693C0.148,-0.684 0.144,-0.676 0.137,-0.669C0.13,-0.662 0.122,-0.659 0.112,-0.659Z" style="fill:rgb(101,101,101);fill-rule:nonzero;"/>
            </g>
            <g transform="matrix(50,0,0,50,448.358,446.46)">
                <rect x="0.09" y="-0.728" width="0.044" height="0.728" style="fill:rgb(101,101,101);fill-rule:nonzero;"/>
            </g>
            <g transform="matrix(50,0,0,50,459.588,446.46)">
            </g>
            <g transform="matrix(50,0,0,50,473.651,446.46)">
                <path d="M0.252,0.012C0.218,0.012 0.188,0.006 0.161,-0.004C0.135,-0.015 0.114,-0.031 0.097,-0.052C0.08,-0.072 0.068,-0.098 0.062,-0.127L0.105,-0.138C0.113,-0.102 0.129,-0.075 0.154,-0.056C0.179,-0.038 0.212,-0.029 0.251,-0.029C0.295,-0.029 0.331,-0.04 0.358,-0.061C0.385,-0.082 0.399,-0.108 0.399,-0.141C0.399,-0.166 0.391,-0.187 0.375,-0.204C0.359,-0.221 0.334,-0.234 0.302,-0.242L0.215,-0.263C0.171,-0.274 0.137,-0.291 0.115,-0.316C0.092,-0.34 0.081,-0.369 0.081,-0.405C0.081,-0.434 0.089,-0.46 0.104,-0.482C0.12,-0.505 0.141,-0.522 0.168,-0.535C0.195,-0.547 0.226,-0.553 0.261,-0.553C0.292,-0.553 0.319,-0.548 0.343,-0.539C0.366,-0.529 0.386,-0.515 0.401,-0.496C0.417,-0.477 0.429,-0.454 0.438,-0.428L0.396,-0.417C0.386,-0.447 0.371,-0.471 0.349,-0.488C0.327,-0.505 0.298,-0.514 0.261,-0.514C0.221,-0.514 0.189,-0.504 0.163,-0.484C0.138,-0.464 0.126,-0.438 0.126,-0.406C0.126,-0.381 0.134,-0.359 0.151,-0.342C0.168,-0.325 0.194,-0.312 0.229,-0.303L0.314,-0.282C0.357,-0.272 0.389,-0.255 0.411,-0.231C0.433,-0.207 0.445,-0.178 0.445,-0.143C0.445,-0.113 0.436,-0.086 0.42,-0.063C0.404,-0.039 0.381,-0.021 0.352,-0.008C0.323,0.005 0.289,0.012 0.252,0.012Z" style="fill:rgb(101,101,101);fill-rule:nonzero;"/>
            </g>
            <g transform="matrix(50,0,0,50,498.887,446.46)">
                <rect x="0.09" y="-0.546" width="0.044" height="0.546" style="fill:rgb(101,101,101);fill-rule:nonzero;"/>
            </g>
            <g transform="matrix(50,0,0,50,510.117,446.46)">
                <path d="M0.134,-0.353L0.134,-0L0.09,-0L0.09,-0.546L0.133,-0.546L0.133,-0.424L0.125,-0.424C0.139,-0.468 0.162,-0.501 0.196,-0.522C0.229,-0.543 0.266,-0.553 0.308,-0.553C0.345,-0.553 0.378,-0.546 0.406,-0.53C0.434,-0.514 0.456,-0.492 0.472,-0.463C0.488,-0.435 0.496,-0.4 0.496,-0.36L0.496,-0L0.452,-0L0.452,-0.357C0.452,-0.404 0.438,-0.442 0.41,-0.47C0.381,-0.498 0.345,-0.512 0.299,-0.512C0.268,-0.512 0.24,-0.505 0.215,-0.492C0.19,-0.479 0.17,-0.46 0.156,-0.437C0.142,-0.413 0.134,-0.385 0.134,-0.353Z" style="fill:rgb(101,101,101);fill-rule:nonzero;"/>
            </g>
            <g transform="matrix(50,0,0,50,539.431,446.46)">
                <path d="M0.224,0.012C0.192,0.012 0.163,0.006 0.137,-0.007C0.111,-0.019 0.09,-0.038 0.074,-0.062C0.058,-0.086 0.05,-0.116 0.05,-0.15C0.05,-0.173 0.054,-0.193 0.063,-0.21C0.071,-0.228 0.083,-0.243 0.1,-0.255C0.117,-0.268 0.138,-0.278 0.165,-0.286C0.191,-0.295 0.222,-0.301 0.259,-0.305C0.286,-0.309 0.311,-0.312 0.333,-0.315C0.355,-0.318 0.372,-0.323 0.384,-0.33C0.397,-0.337 0.403,-0.348 0.403,-0.361L0.403,-0.384C0.403,-0.41 0.397,-0.433 0.386,-0.452C0.375,-0.472 0.359,-0.486 0.338,-0.497C0.317,-0.507 0.291,-0.513 0.262,-0.513C0.236,-0.513 0.213,-0.509 0.193,-0.501C0.172,-0.493 0.155,-0.482 0.141,-0.469C0.126,-0.455 0.116,-0.439 0.109,-0.422L0.066,-0.437C0.077,-0.463 0.092,-0.485 0.111,-0.502C0.131,-0.519 0.154,-0.532 0.18,-0.541C0.206,-0.549 0.233,-0.553 0.261,-0.553C0.286,-0.553 0.309,-0.55 0.331,-0.543C0.354,-0.536 0.374,-0.526 0.391,-0.512C0.408,-0.497 0.422,-0.48 0.432,-0.458C0.442,-0.436 0.447,-0.411 0.447,-0.381L0.447,-0L0.403,-0L0.403,-0.098L0.4,-0.098C0.39,-0.078 0.377,-0.059 0.36,-0.043C0.344,-0.026 0.324,-0.013 0.301,-0.003C0.278,0.007 0.252,0.012 0.224,0.012ZM0.229,-0.029C0.263,-0.029 0.293,-0.037 0.319,-0.054C0.345,-0.071 0.366,-0.094 0.381,-0.123C0.396,-0.152 0.403,-0.185 0.403,-0.221L0.403,-0.301C0.397,-0.297 0.389,-0.292 0.379,-0.289C0.369,-0.285 0.357,-0.282 0.344,-0.279C0.332,-0.276 0.318,-0.274 0.304,-0.272C0.29,-0.27 0.276,-0.268 0.263,-0.266C0.224,-0.262 0.191,-0.254 0.167,-0.244C0.142,-0.234 0.124,-0.222 0.112,-0.206C0.101,-0.19 0.095,-0.171 0.095,-0.149C0.095,-0.124 0.101,-0.103 0.112,-0.085C0.124,-0.067 0.14,-0.053 0.16,-0.043C0.181,-0.034 0.204,-0.029 0.229,-0.029Z" style="fill:rgb(101,101,101);fill-rule:nonzero;"/>
            </g>
            <g transform="matrix(50,0,0,50,565.399,446.46)">
                <path d="M0.25,-0L0.041,-0.546L0.089,-0.546L0.225,-0.183C0.236,-0.156 0.245,-0.128 0.254,-0.1C0.263,-0.072 0.273,-0.045 0.282,-0.018L0.268,-0.018C0.278,-0.045 0.287,-0.072 0.296,-0.1C0.305,-0.128 0.315,-0.156 0.325,-0.183L0.461,-0.546L0.509,-0.546L0.3,-0L0.25,-0Z" style="fill:rgb(101,101,101);fill-rule:nonzero;"/>
            </g>
            <g transform="matrix(50,0,0,50,592.971,446.46)">
                <rect x="0.09" y="-0.728" width="0.044" height="0.728" style="fill:rgb(101,101,101);fill-rule:nonzero;"/>
            </g>
            <g transform="matrix(50,0,0,50,604.201,446.46)">
                <path d="M0.224,0.012C0.192,0.012 0.163,0.006 0.137,-0.007C0.111,-0.019 0.09,-0.038 0.074,-0.062C0.058,-0.086 0.05,-0.116 0.05,-0.15C0.05,-0.173 0.054,-0.193 0.063,-0.21C0.071,-0.228 0.083,-0.243 0.1,-0.255C0.117,-0.268 0.138,-0.278 0.165,-0.286C0.191,-0.295 0.222,-0.301 0.259,-0.305C0.286,-0.309 0.311,-0.312 0.333,-0.315C0.355,-0.318 0.372,-0.323 0.384,-0.33C0.397,-0.337 0.403,-0.348 0.403,-0.361L0.403,-0.384C0.403,-0.41 0.397,-0.433 0.386,-0.452C0.375,-0.472 0.359,-0.486 0.338,-0.497C0.317,-0.507 0.291,-0.513 0.262,-0.513C0.236,-0.513 0.213,-0.509 0.193,-0.501C0.172,-0.493 0.155,-0.482 0.141,-0.469C0.126,-0.455 0.116,-0.439 0.109,-0.422L0.066,-0.437C0.077,-0.463 0.092,-0.485 0.111,-0.502C0.131,-0.519 0.154,-0.532 0.18,-0.541C0.206,-0.549 0.233,-0.553 0.261,-0.553C0.286,-0.553 0.309,-0.55 0.331,-0.543C0.354,-0.536 0.374,-0.526 0.391,-0.512C0.408,-0.497 0.422,-0.48 0.432,-0.458C0.442,-0.436 0.447,-0.411 0.447,-0.381L0.447,-0L0.403,-0L0.403,-0.098L0.4,-0.098C0.39,-0.078 0.377,-0.059 0.36,-0.043C0.344,-0.026 0.324,-0.013 0.301,-0.003C0.278,0.007 0.252,0.012 0.224,0.012ZM0.229,-0.029C0.263,-0.029 0.293,-0.037 0.319,-0.054C0.345,-0.071 0.366,-0.094 0.381,-0.123C0.396,-0.152 0.403,-0.185 0.403,-0.221L0.403,-0.301C0.397,-0.297 0.389,-0.292 0.379,-0.289C0.369,-0.285 0.357,-0.282 0.344,-0.279C0.332,-0.276 0.318,-0.274 0.304,-0.272C0.29,-0.27 0.276,-0.268 0.263,-0.266C0.224,-0.262 0.191,-0.254 0.167,-0.244C0.142,-0.234 0.124,-0.222 0.112,-0.206C0.101,-0.19 0.095,-0.171 0.095,-0.149C0.095,-0.124 0.101,-0.103 0.112,-0.085C0.124,-0.067 0.14,-0.053 0.16,-0.043C0.181,-0.034 0.204,-0.029 0.229,-0.029Z" style="fill:rgb(101,101,101);fill-rule:nonzero;"/>
            </g>
            <g transform="matrix(50,0,0,50,631.073,446.46)">
                <path d="M0.09,-0L0.09,-0.546L0.133,-0.546L0.133,-0.46L0.137,-0.46C0.149,-0.488 0.169,-0.511 0.198,-0.528C0.226,-0.545 0.257,-0.553 0.293,-0.553C0.297,-0.553 0.312,-0.553 0.316,-0.553L0.316,-0.508C0.314,-0.508 0.311,-0.509 0.306,-0.509C0.302,-0.51 0.296,-0.51 0.291,-0.51C0.261,-0.51 0.234,-0.503 0.21,-0.49C0.187,-0.477 0.168,-0.459 0.155,-0.436C0.141,-0.414 0.134,-0.388 0.134,-0.358L0.134,-0L0.09,-0Z" style="fill:rgb(101,101,101);fill-rule:nonzero;"/>
            </g>
            <g transform="matrix(50,0,0,50,648.358,446.46)">
                <rect x="0.09" y="-0.546" width="0.044" height="0.546" style="fill:rgb(101,101,101);fill-rule:nonzero;"/>
            </g>
            <g transform="matrix(50,0,0,50,659.589,446.46)">
            </g>
            <g transform="matrix(50,0,0,50,673.651,446.46)">
                <path d="M0.224,0.012C0.192,0.012 0.163,0.006 0.137,-0.007C0.111,-0.019 0.09,-0.038 0.074,-0.062C0.058,-0.086 0.05,-0.116 0.05,-0.15C0.05,-0.173 0.054,-0.193 0.063,-0.21C0.071,-0.228 0.083,-0.243 0.1,-0.255C0.117,-0.268 0.138,-0.278 0.165,-0.286C0.191,-0.295 0.222,-0.301 0.259,-0.305C0.286,-0.309 0.311,-0.312 0.333,-0.315C0.355,-0.318 0.372,-0.323 0.384,-0.33C0.397,-0.337 0.403,-0.348 0.403,-0.361L0.403,-0.384C0.403,-0.41 0.397,-0.433 0.386,-0.452C0.375,-0.472 0.359,-0.486 0.338,-0.497C0.317,-0.507 0.291,-0.513 0.262,-0.513C0.236,-0.513 0.213,-0.509 0.193,-0.501C0.172,-0.493 0.155,-0.482 0.141,-0.469C0.126,-0.455 0.116,-0.439 0.109,-0.422L0.066,-0.437C0.077,-0.463 0.092,-0.485 0.111,-0.502C0.131,-0.519 0.154,-0.532 0.18,-0.541C0.206,-0.549 0.233,-0.553 0.261,-0.553C0.286,-0.553 0.309,-0.55 0.331,-0.543C0.354,-0.536 0.374,-0.526 0.391,-0.512C0.408,-0.497 0.422,-0.48 0.432,-0.458C0.442,-0.436 0.447,-0.411 0.447,-0.381L0.447,-0L0.403,-0L0.403,-0.098L0.4,-0.098C0.39,-0.078 0.377,-0.059 0.36,-0.043C0.344,-0.026 0.324,-0.013 0.301,-0.003C0.278,0.007 0.252,0.012 0.224,0.012ZM0.229,-0.029C0.263,-0.029 0.293,-0.037 0.319,-0.054C0.345,-0.071 0.366,-0.094 0.381,-0.123C0.396,-0.152 0.403,-0.185 0.403,-0.221L0.403,-0.301C0.397,-0.297 0.389,-0.292 0.379,-0.289C0.369,-0.285 0.357,-0.282 0.344,-0.279C0.332,-0.276 0.318,-0.274 0.304,-0.272C0.29,-0.27 0.276,-0.268 0.263,-0.266C0.224,-0.262 0.191,-0.254 0.167,-0.244C0.142,-0.234 0.124,-0.222 0.112,-0.206C0.101,-0.19 0.095,-0.171 0.095,-0.149C0.095,-0.124 0.101,-0.103 0.112,-0.085C0.124,-0.067 0.14,-0.053 0.16,-0.043C0.181,-0.034 0.204,-0.029 0.229,-0.029Z" style="fill:rgb(101,101,101);fill-rule:nonzero;"/>
            </g>
            <g transform="matrix(50,0,0,50,700.523,446.46)">
                <path d="M0.129,-0.212L0.129,-0.275L0.14,-0.275L0.411,-0.546L0.469,-0.546L0.219,-0.296L0.214,-0.294L0.129,-0.212ZM0.09,-0L0.09,-0.728L0.134,-0.728L0.134,-0L0.09,-0ZM0.424,-0L0.194,-0.29L0.226,-0.32L0.48,-0L0.424,-0Z" style="fill:rgb(101,101,101);fill-rule:nonzero;"/>
            </g>
            <g transform="matrix(50,0,0,50,725.914,446.46)">
                <path d="M0.224,0.012C0.192,0.012 0.163,0.006 0.137,-0.007C0.111,-0.019 0.09,-0.038 0.074,-0.062C0.058,-0.086 0.05,-0.116 0.05,-0.15C0.05,-0.173 0.054,-0.193 0.063,-0.21C0.071,-0.228 0.083,-0.243 0.1,-0.255C0.117,-0.268 0.138,-0.278 0.165,-0.286C0.191,-0.295 0.222,-0.301 0.259,-0.305C0.286,-0.309 0.311,-0.312 0.333,-0.315C0.355,-0.318 0.372,-0.323 0.384,-0.33C0.397,-0.337 0.403,-0.348 0.403,-0.361L0.403,-0.384C0.403,-0.41 0.397,-0.433 0.386,-0.452C0.375,-0.472 0.359,-0.486 0.338,-0.497C0.317,-0.507 0.291,-0.513 0.262,-0.513C0.236,-0.513 0.213,-0.509 0.193,-0.501C0.172,-0.493 0.155,-0.482 0.141,-0.469C0.126,-0.455 0.116,-0.439 0.109,-0.422L0.066,-0.437C0.077,-0.463 0.092,-0.485 0.111,-0.502C0.131,-0.519 0.154,-0.532 0.18,-0.541C0.206,-0.549 0.233,-0.553 0.261,-0.553C0.286,-0.553 0.309,-0.55 0.331,-0.543C0.354,-0.536 0.374,-0.526 0.391,-0.512C0.408,-0.497 0.422,-0.48 0.432,-0.458C0.442,-0.436 0.447,-0.411 0.447,-0.381L0.447,-0L0.403,-0L0.403,-0.098L0.4,-0.098C0.39,-0.078 0.377,-0.059 0.36,-0.043C0.344,-0.026 0.324,-0.013 0.301,-0.003C0.278,0.007 0.252,0.012 0.224,0.012ZM0.229,-0.029C0.263,-0.029 0.293,-0.037 0.319,-0.054C0.345,-0.071 0.366,-0.094 0.381,-0.123C0.396,-0.152 0.403,-0.185 0.403,-0.221L0.403,-0.301C0.397,-0.297 0.389,-0.292 0.379,-0.289C0.369,-0.285 0.357,-0.282 0.344,-0.279C0.332,-0.276 0.318,-0.274 0.304,-0.272C0.29,-0.27 0.276,-0.268 0.263,-0.266C0.224,-0.262 0.191,-0.254 0.167,-0.244C0.142,-0.234 0.124,-0.222 0.112,-0.206C0.101,-0.19 0.095,-0.171 0.095,-0.149C0.095,-0.124 0.101,-0.103 0.112,-0.085C0.124,-0.067 0.14,-0.053 0.16,-0.043C0.181,-0.034 0.204,-0.029 0.229,-0.029Z" style="fill:rgb(101,101,101);fill-rule:nonzero;"/>
            </g>
            <g transform="matrix(50,0,0,50,752.786,446.46)">
                <path d="M0.276,0.012C0.233,0.012 0.195,-0 0.162,-0.025C0.129,-0.049 0.104,-0.082 0.086,-0.125C0.068,-0.167 0.059,-0.216 0.059,-0.271C0.059,-0.326 0.068,-0.375 0.086,-0.417C0.104,-0.46 0.13,-0.493 0.162,-0.517C0.195,-0.541 0.233,-0.553 0.276,-0.553C0.308,-0.553 0.335,-0.547 0.358,-0.536C0.381,-0.524 0.401,-0.508 0.417,-0.488C0.433,-0.469 0.445,-0.447 0.453,-0.424L0.457,-0.424L0.457,-0.728L0.501,-0.728L0.501,-0L0.458,-0L0.458,-0.119L0.453,-0.119C0.445,-0.096 0.432,-0.074 0.417,-0.054C0.401,-0.034 0.381,-0.018 0.358,-0.006C0.335,0.006 0.307,0.012 0.276,0.012ZM0.281,-0.029C0.317,-0.029 0.349,-0.04 0.375,-0.061C0.402,-0.082 0.422,-0.111 0.436,-0.148C0.45,-0.184 0.457,-0.226 0.457,-0.272C0.457,-0.318 0.45,-0.359 0.436,-0.395C0.422,-0.432 0.402,-0.46 0.375,-0.481C0.349,-0.502 0.317,-0.512 0.281,-0.512C0.244,-0.512 0.212,-0.502 0.186,-0.48C0.159,-0.459 0.139,-0.431 0.125,-0.394C0.111,-0.358 0.104,-0.317 0.104,-0.272C0.104,-0.226 0.111,-0.185 0.125,-0.149C0.139,-0.112 0.159,-0.083 0.186,-0.062C0.212,-0.04 0.244,-0.029 0.281,-0.029Z" style="fill:rgb(101,101,101);fill-rule:nonzero;"/>
            </g>
            <g transform="matrix(50,0,0,50,782.359,446.46)">
                <path d="M0.303,0.012C0.253,0.012 0.211,-0 0.174,-0.025C0.138,-0.049 0.109,-0.083 0.089,-0.125C0.069,-0.168 0.059,-0.216 0.059,-0.271C0.059,-0.325 0.069,-0.373 0.089,-0.416C0.109,-0.458 0.137,-0.492 0.172,-0.517C0.207,-0.541 0.247,-0.553 0.292,-0.553C0.323,-0.553 0.352,-0.547 0.38,-0.535C0.407,-0.523 0.431,-0.505 0.452,-0.482C0.473,-0.459 0.49,-0.43 0.502,-0.397C0.514,-0.364 0.52,-0.326 0.52,-0.283L0.52,-0.263L0.087,-0.263L0.087,-0.302L0.496,-0.302L0.476,-0.287C0.476,-0.329 0.468,-0.367 0.453,-0.401C0.437,-0.436 0.416,-0.463 0.389,-0.483C0.361,-0.502 0.329,-0.512 0.292,-0.512C0.256,-0.512 0.224,-0.502 0.196,-0.482C0.167,-0.462 0.145,-0.435 0.128,-0.4C0.112,-0.366 0.104,-0.328 0.104,-0.286L0.104,-0.268C0.104,-0.223 0.112,-0.182 0.128,-0.146C0.143,-0.11 0.166,-0.082 0.196,-0.061C0.226,-0.04 0.261,-0.029 0.303,-0.029C0.333,-0.029 0.358,-0.034 0.379,-0.044C0.4,-0.054 0.417,-0.067 0.431,-0.081C0.445,-0.096 0.455,-0.11 0.461,-0.123L0.502,-0.107C0.494,-0.089 0.481,-0.07 0.463,-0.052C0.446,-0.034 0.424,-0.019 0.397,-0.007C0.37,0.006 0.339,0.012 0.303,0.012Z" style="fill:rgb(101,101,101);fill-rule:nonzero;"/>
            </g>
            <g transform="matrix(50,0,0,50,811.152,446.46)">
                <path d="M0.09,-0L0.09,-0.546L0.134,-0.546L0.134,-0.419L0.126,-0.419C0.134,-0.451 0.146,-0.476 0.163,-0.496C0.18,-0.516 0.2,-0.53 0.223,-0.54C0.246,-0.55 0.269,-0.554 0.293,-0.554C0.333,-0.554 0.367,-0.542 0.394,-0.517C0.421,-0.492 0.438,-0.457 0.445,-0.414L0.436,-0.414C0.442,-0.443 0.453,-0.468 0.47,-0.489C0.487,-0.51 0.508,-0.526 0.532,-0.538C0.556,-0.549 0.583,-0.554 0.611,-0.554C0.645,-0.554 0.674,-0.547 0.699,-0.532C0.724,-0.518 0.744,-0.496 0.758,-0.469C0.772,-0.441 0.779,-0.407 0.779,-0.367L0.779,-0L0.735,-0L0.735,-0.366C0.735,-0.414 0.723,-0.451 0.698,-0.476C0.673,-0.5 0.642,-0.513 0.603,-0.513C0.575,-0.513 0.55,-0.507 0.528,-0.495C0.506,-0.483 0.489,-0.466 0.476,-0.443C0.463,-0.421 0.457,-0.394 0.457,-0.363L0.457,-0L0.413,-0L0.413,-0.369C0.413,-0.414 0.401,-0.449 0.377,-0.475C0.353,-0.5 0.322,-0.513 0.283,-0.513C0.256,-0.513 0.231,-0.506 0.208,-0.494C0.186,-0.481 0.168,-0.463 0.154,-0.44C0.141,-0.417 0.134,-0.39 0.134,-0.359L0.134,-0L0.09,-0Z" style="fill:rgb(101,101,101);fill-rule:nonzero;"/>
            </g>
            <g transform="matrix(50,0,0,50,854.625,446.46)">
                <path d="M0.09,-0L0.09,-0.546L0.134,-0.546L0.134,-0L0.09,-0ZM0.112,-0.659C0.103,-0.659 0.094,-0.662 0.087,-0.669C0.08,-0.676 0.076,-0.684 0.076,-0.693C0.076,-0.703 0.08,-0.711 0.087,-0.718C0.094,-0.725 0.103,-0.728 0.112,-0.728C0.122,-0.728 0.13,-0.725 0.137,-0.718C0.144,-0.711 0.148,-0.703 0.148,-0.693C0.148,-0.684 0.144,-0.676 0.137,-0.669C0.13,-0.662 0.122,-0.659 0.112,-0.659Z" style="fill:rgb(101,101,101);fill-rule:nonzero;"/>
            </g>
            <g transform="matrix(50,0,0,50,865.856,446.46)">
                <path d="M0.252,0.012C0.218,0.012 0.188,0.006 0.161,-0.004C0.135,-0.015 0.114,-0.031 0.097,-0.052C0.08,-0.072 0.068,-0.098 0.062,-0.127L0.105,-0.138C0.113,-0.102 0.129,-0.075 0.154,-0.056C0.179,-0.038 0.212,-0.029 0.251,-0.029C0.295,-0.029 0.331,-0.04 0.358,-0.061C0.385,-0.082 0.399,-0.108 0.399,-0.141C0.399,-0.166 0.391,-0.187 0.375,-0.204C0.359,-0.221 0.334,-0.234 0.302,-0.242L0.215,-0.263C0.171,-0.274 0.137,-0.291 0.115,-0.316C0.092,-0.34 0.081,-0.369 0.081,-0.405C0.081,-0.434 0.089,-0.46 0.104,-0.482C0.12,-0.505 0.141,-0.522 0.168,-0.535C0.195,-0.547 0.226,-0.553 0.261,-0.553C0.292,-0.553 0.319,-0.548 0.343,-0.539C0.366,-0.529 0.386,-0.515 0.401,-0.496C0.417,-0.477 0.429,-0.454 0.438,-0.428L0.396,-0.417C0.386,-0.447 0.371,-0.471 0.349,-0.488C0.327,-0.505 0.298,-0.514 0.261,-0.514C0.221,-0.514 0.189,-0.504 0.163,-0.484C0.138,-0.464 0.126,-0.438 0.126,-0.406C0.126,-0.381 0.134,-0.359 0.151,-0.342C0.168,-0.325 0.194,-0.312 0.229,-0.303L0.314,-0.282C0.357,-0.272 0.389,-0.255 0.411,-0.231C0.433,-0.207 0.445,-0.178 0.445,-0.143C0.445,-0.113 0.436,-0.086 0.42,-0.063C0.404,-0.039 0.381,-0.021 0.352,-0.008C0.323,0.005 0.289,0.012 0.252,0.012Z" style="fill:rgb(101,101,101);fill-rule:nonzero;"/>
            </g>
            <g transform="matrix(50,0,0,50,891.092,446.46)">
                <path d="M0.09,-0L0.09,-0.546L0.134,-0.546L0.134,-0L0.09,-0ZM0.112,-0.659C0.103,-0.659 0.094,-0.662 0.087,-0.669C0.08,-0.676 0.076,-0.684 0.076,-0.693C0.076,-0.703 0.08,-0.711 0.087,-0.718C0.094,-0.725 0.103,-0.728 0.112,-0.728C0.122,-0.728 0.13,-0.725 0.137,-0.718C0.144,-0.711 0.148,-0.703 0.148,-0.693C0.148,-0.684 0.144,-0.676 0.137,-0.669C0.13,-0.662 0.122,-0.659 0.112,-0.659Z" style="fill:rgb(101,101,101);fill-rule:nonzero;"/>
            </g>
            <g transform="matrix(50,0,0,50,902.322,446.46)">
            </g>
        </g>
        <g transform="matrix(8.81176,0,0,8.81176,-5361.72,-1399.57)">
            <g transform="matrix(50,0,0,50,642.812,200.667)">
                <path d="M0.346,0.008C0.317,0.008 0.293,0.003 0.273,-0.007C0.253,-0.017 0.237,-0.03 0.226,-0.045C0.215,-0.06 0.207,-0.076 0.202,-0.093L0.195,-0.093L0.179,-0L0.011,-0L0.132,-0.728L0.302,-0.728L0.255,-0.452L0.26,-0.452C0.27,-0.47 0.282,-0.486 0.297,-0.502C0.311,-0.517 0.329,-0.529 0.35,-0.539C0.37,-0.548 0.394,-0.553 0.422,-0.553C0.457,-0.553 0.488,-0.545 0.515,-0.529C0.543,-0.514 0.565,-0.49 0.582,-0.458C0.599,-0.426 0.607,-0.386 0.607,-0.338C0.607,-0.3 0.602,-0.261 0.592,-0.221C0.581,-0.181 0.566,-0.143 0.545,-0.109C0.523,-0.074 0.496,-0.046 0.464,-0.024C0.431,-0.003 0.392,0.008 0.346,0.008ZM0.292,-0.125C0.317,-0.125 0.339,-0.132 0.356,-0.146C0.374,-0.159 0.389,-0.177 0.4,-0.198C0.411,-0.219 0.42,-0.241 0.425,-0.264C0.43,-0.287 0.433,-0.308 0.433,-0.327C0.433,-0.356 0.427,-0.379 0.415,-0.395C0.402,-0.411 0.384,-0.42 0.359,-0.42C0.335,-0.42 0.315,-0.413 0.297,-0.401C0.279,-0.389 0.265,-0.373 0.253,-0.353C0.241,-0.333 0.232,-0.311 0.226,-0.288C0.22,-0.265 0.217,-0.242 0.217,-0.22C0.217,-0.19 0.223,-0.167 0.236,-0.15C0.249,-0.134 0.268,-0.125 0.292,-0.125Z" style="fill:rgb(103,22,137);fill-rule:nonzero;"/>
            </g>
            <g transform="matrix(50,0,0,50,672.676,200.667)">
                <path d="M0.011,-0L0.102,-0.546L0.272,-0.546L0.182,-0L0.011,-0ZM0.197,-0.61C0.173,-0.61 0.153,-0.618 0.139,-0.634C0.124,-0.65 0.119,-0.669 0.123,-0.692C0.126,-0.715 0.138,-0.734 0.158,-0.75C0.178,-0.766 0.2,-0.774 0.225,-0.774C0.249,-0.774 0.268,-0.766 0.283,-0.75C0.297,-0.734 0.303,-0.715 0.299,-0.692C0.295,-0.669 0.284,-0.65 0.264,-0.634C0.244,-0.618 0.222,-0.61 0.197,-0.61Z" style="fill:rgb(103,22,137);fill-rule:nonzero;"/>
            </g>
            <g transform="matrix(50,0,0,50,684.851,200.667)">
                <path d="M0.302,-0.728L0.181,-0L0.011,-0L0.132,-0.728L0.302,-0.728Z" style="fill:rgb(103,22,137);fill-rule:nonzero;"/>
            </g>
            <g transform="matrix(50,0,0,50,697.001,200.667)">
                <path d="M0.236,0.216C0.187,0.216 0.145,0.209 0.11,0.196C0.076,0.183 0.049,0.166 0.03,0.143C0.011,0.121 0.001,0.096 -0.001,0.067L0.148,0.048C0.15,0.057 0.154,0.066 0.161,0.073C0.168,0.081 0.177,0.087 0.19,0.091C0.202,0.095 0.218,0.097 0.237,0.097C0.274,0.097 0.304,0.088 0.327,0.071C0.35,0.053 0.365,0.028 0.371,-0.004L0.387,-0.095L0.371,-0.095C0.362,-0.078 0.35,-0.064 0.336,-0.05C0.322,-0.037 0.305,-0.027 0.286,-0.019C0.267,-0.011 0.245,-0.007 0.219,-0.007C0.184,-0.007 0.152,-0.015 0.123,-0.029C0.095,-0.044 0.072,-0.067 0.056,-0.097C0.039,-0.127 0.031,-0.165 0.031,-0.211C0.031,-0.253 0.037,-0.294 0.048,-0.334C0.06,-0.375 0.076,-0.411 0.099,-0.444C0.121,-0.477 0.148,-0.503 0.18,-0.523C0.213,-0.543 0.25,-0.553 0.291,-0.553C0.314,-0.553 0.334,-0.55 0.351,-0.543C0.368,-0.537 0.383,-0.529 0.394,-0.518C0.406,-0.508 0.416,-0.497 0.423,-0.484C0.43,-0.472 0.435,-0.46 0.438,-0.447L0.444,-0.448L0.46,-0.546L0.629,-0.546L0.539,-0.007C0.531,0.043 0.513,0.085 0.485,0.118C0.457,0.151 0.422,0.175 0.379,0.192C0.337,0.208 0.289,0.216 0.236,0.216ZM0.28,-0.132C0.304,-0.132 0.325,-0.138 0.342,-0.15C0.36,-0.162 0.375,-0.178 0.386,-0.197C0.398,-0.216 0.407,-0.237 0.412,-0.26C0.418,-0.283 0.421,-0.305 0.421,-0.327C0.421,-0.356 0.415,-0.379 0.402,-0.395C0.39,-0.411 0.371,-0.42 0.346,-0.42C0.323,-0.42 0.302,-0.413 0.285,-0.401C0.267,-0.389 0.253,-0.373 0.241,-0.353C0.229,-0.333 0.22,-0.312 0.214,-0.289C0.208,-0.266 0.205,-0.243 0.205,-0.221C0.205,-0.193 0.211,-0.171 0.224,-0.155C0.236,-0.14 0.255,-0.132 0.28,-0.132Z" style="fill:rgb(103,22,137);fill-rule:nonzero;"/>
            </g>
            <g transform="matrix(50,0,0,50,726.983,200.667)">
                <path d="M0.273,0.012C0.223,0.012 0.18,0.003 0.143,-0.015C0.107,-0.033 0.079,-0.058 0.059,-0.092C0.04,-0.125 0.03,-0.165 0.03,-0.212C0.03,-0.257 0.038,-0.3 0.053,-0.341C0.068,-0.383 0.09,-0.419 0.118,-0.451C0.146,-0.483 0.18,-0.508 0.219,-0.526C0.258,-0.545 0.302,-0.554 0.35,-0.554C0.39,-0.554 0.426,-0.547 0.459,-0.534C0.491,-0.522 0.516,-0.503 0.535,-0.479C0.554,-0.454 0.564,-0.425 0.564,-0.391C0.564,-0.356 0.553,-0.327 0.531,-0.305C0.51,-0.283 0.479,-0.266 0.438,-0.254C0.397,-0.243 0.347,-0.235 0.288,-0.23C0.23,-0.226 0.163,-0.224 0.089,-0.224L0.105,-0.322C0.169,-0.322 0.22,-0.322 0.26,-0.324C0.3,-0.326 0.33,-0.328 0.352,-0.333C0.373,-0.337 0.388,-0.343 0.396,-0.351C0.404,-0.358 0.408,-0.368 0.408,-0.38C0.408,-0.396 0.401,-0.408 0.388,-0.417C0.375,-0.426 0.356,-0.431 0.333,-0.431C0.303,-0.431 0.279,-0.422 0.26,-0.406C0.242,-0.39 0.228,-0.37 0.219,-0.346C0.209,-0.322 0.203,-0.298 0.199,-0.273C0.196,-0.248 0.194,-0.226 0.194,-0.208C0.194,-0.19 0.197,-0.174 0.202,-0.159C0.208,-0.144 0.217,-0.133 0.231,-0.124C0.244,-0.116 0.262,-0.112 0.286,-0.112C0.311,-0.112 0.333,-0.117 0.352,-0.127C0.371,-0.137 0.384,-0.151 0.391,-0.17L0.543,-0.155C0.526,-0.105 0.494,-0.065 0.446,-0.034C0.399,-0.004 0.341,0.012 0.273,0.012Z" style="fill:rgb(103,22,137);fill-rule:nonzero;"/>
            </g>
            <g transform="matrix(50,0,0,50,756.75,200.667)">
            </g>
        </g>
    </g>
</svg>
