<?xml version="1.0" encoding="UTF-8" standalone="no"?><!DOCTYPE svg PUBLIC "-//W3C//DTD SVG 1.1//EN" "http://www.w3.org/Graphics/SVG/1.1/DTD/svg11.dtd"><svg width="100%" height="100%" viewBox="0 0 510 500" version="1.1" xmlns="http://www.w3.org/2000/svg" xmlns:xlink="http://www.w3.org/1999/xlink" xml:space="preserve" xmlns:serif="http://www.serif.com/" style="fill-rule:evenodd;clip-rule:evenodd;stroke-linecap:round;stroke-linejoin:round;stroke-miterlimit:1.5;"><rect x="-0.233" y="-0" width="510.467" height="500" style="fill:#671689;"/><g transform="matrix(161.717,0,0,161.717,72.4239,179.975)"><path d="M0.346,0.008c-0.029,0 -0.053,-0.005 -0.073,-0.015c-0.02,-0.01 -0.036,-0.023 -0.047,-0.038c-0.011,-0.015 -0.019,-0.031 -0.024,-0.048l-0.007,-0l-0.016,0.093l-0.168,-0l0.121,-0.728l0.17,0l-0.047,0.276l0.005,-0c0.01,-0.018 0.022,-0.034 0.037,-0.05c0.014,-0.015 0.032,-0.027 0.053,-0.037c0.02,-0.009 0.044,-0.014 0.072,-0.014c0.035,0 0.066,0.008 0.093,0.024c0.028,0.015 0.05,0.039 0.067,0.071c0.017,0.032 0.025,0.072 0.025,0.12c-0,0.038 -0.005,0.077 -0.015,0.117c-0.011,0.04 -0.026,0.078 -0.047,0.112c-0.022,0.035 -0.049,0.063 -0.081,0.085c-0.033,0.021 -0.072,0.032 -0.118,0.032Zm-0.054,-0.133c0.025,-0 0.047,-0.007 0.064,-0.021c0.018,-0.013 0.033,-0.031 0.044,-0.052c0.011,-0.021 0.02,-0.043 0.025,-0.066c0.005,-0.023 0.008,-0.044 0.008,-0.063c-0,-0.029 -0.006,-0.052 -0.018,-0.068c-0.013,-0.016 -0.031,-0.025 -0.056,-0.025c-0.024,0 -0.044,0.007 -0.062,0.019c-0.018,0.012 -0.032,0.028 -0.044,0.048c-0.012,0.02 -0.021,0.042 -0.027,0.065c-0.006,0.023 -0.009,0.046 -0.009,0.068c-0,0.03 0.006,0.053 0.019,0.07c0.013,0.016 0.032,0.025 0.056,0.025Z" style="fill:#fff;fill-rule:nonzero;"/></g><g transform="matrix(161.717,0,0,161.717,169.015,179.975)"><path d="M0.011,-0l0.091,-0.546l0.17,0l-0.09,0.546l-0.171,-0Zm0.186,-0.61c-0.024,0 -0.044,-0.008 -0.058,-0.024c-0.015,-0.016 -0.02,-0.035 -0.016,-0.058c0.003,-0.023 0.015,-0.042 0.035,-0.058c0.02,-0.016 0.042,-0.024 0.067,-0.024c0.024,0 0.043,0.008 0.058,0.024c0.014,0.016 0.02,0.035 0.016,0.058c-0.004,0.023 -0.015,0.042 -0.035,0.058c-0.02,0.016 -0.042,0.024 -0.067,0.024Z" style="fill:#fff;fill-rule:nonzero;"/></g><g transform="matrix(161.717,0,0,161.717,208.393,179.975)"><path d="M0.302,-0.728l-0.121,0.728l-0.17,-0l0.121,-0.728l0.17,0Z" style="fill:#fff;fill-rule:nonzero;"/></g><g transform="matrix(161.717,0,0,161.717,247.692,179.975)"><path d="M0.236,0.216c-0.049,-0 -0.091,-0.007 -0.126,-0.02c-0.034,-0.013 -0.061,-0.03 -0.08,-0.053c-0.019,-0.022 -0.029,-0.047 -0.031,-0.076l0.149,-0.019c0.002,0.009 0.006,0.018 0.013,0.025c0.007,0.008 0.016,0.014 0.029,0.018c0.012,0.004 0.028,0.006 0.047,0.006c0.037,0 0.067,-0.009 0.09,-0.026c0.023,-0.018 0.038,-0.043 0.044,-0.075l0.016,-0.091l-0.016,0c-0.009,0.017 -0.021,0.031 -0.035,0.045c-0.014,0.013 -0.031,0.023 -0.05,0.031c-0.019,0.008 -0.041,0.012 -0.067,0.012c-0.035,-0 -0.067,-0.008 -0.096,-0.022c-0.028,-0.015 -0.051,-0.038 -0.067,-0.068c-0.017,-0.03 -0.025,-0.068 -0.025,-0.114c-0,-0.042 0.006,-0.083 0.017,-0.123c0.012,-0.041 0.028,-0.077 0.051,-0.11c0.022,-0.033 0.049,-0.059 0.081,-0.079c0.033,-0.02 0.07,-0.03 0.111,-0.03c0.023,0 0.043,0.003 0.06,0.01c0.017,0.006 0.032,0.014 0.043,0.025c0.012,0.01 0.022,0.021 0.029,0.034c0.007,0.012 0.012,0.024 0.015,0.037l0.006,-0.001l0.016,-0.098l0.169,0l-0.09,0.539c-0.008,0.05 -0.026,0.092 -0.054,0.125c-0.028,0.033 -0.063,0.057 -0.106,0.074c-0.042,0.016 -0.09,0.024 -0.143,0.024Zm0.044,-0.348c0.024,-0 0.045,-0.006 0.062,-0.018c0.018,-0.012 0.033,-0.028 0.044,-0.047c0.012,-0.019 0.021,-0.04 0.026,-0.063c0.006,-0.023 0.009,-0.045 0.009,-0.067c-0,-0.029 -0.006,-0.052 -0.019,-0.068c-0.012,-0.016 -0.031,-0.025 -0.056,-0.025c-0.023,0 -0.044,0.007 -0.061,0.019c-0.018,0.012 -0.032,0.028 -0.044,0.048c-0.012,0.02 -0.021,0.041 -0.027,0.064c-0.006,0.023 -0.009,0.046 -0.009,0.068c0,0.028 0.006,0.05 0.019,0.066c0.012,0.015 0.031,0.023 0.056,0.023Z" style="fill:#fff;fill-rule:nonzero;"/></g><g transform="matrix(161.717,0,0,161.717,344.662,179.975)"><path d="M0.273,0.012c-0.05,-0 -0.093,-0.009 -0.13,-0.027c-0.036,-0.018 -0.064,-0.043 -0.084,-0.077c-0.019,-0.033 -0.029,-0.073 -0.029,-0.12c-0,-0.045 0.008,-0.088 0.023,-0.129c0.015,-0.042 0.037,-0.078 0.065,-0.11c0.028,-0.032 0.062,-0.057 0.101,-0.075c0.039,-0.019 0.083,-0.028 0.131,-0.028c0.04,0 0.076,0.007 0.109,0.02c0.032,0.012 0.057,0.031 0.076,0.055c0.019,0.025 0.029,0.054 0.029,0.088c-0,0.035 -0.011,0.064 -0.033,0.086c-0.021,0.022 -0.052,0.039 -0.093,0.051c-0.041,0.011 -0.091,0.019 -0.15,0.024c-0.058,0.004 -0.125,0.006 -0.199,0.006l0.016,-0.098c0.064,0 0.115,-0 0.155,-0.002c0.04,-0.002 0.07,-0.004 0.092,-0.009c0.021,-0.004 0.036,-0.01 0.044,-0.018c0.008,-0.007 0.012,-0.017 0.012,-0.029c-0,-0.016 -0.007,-0.028 -0.02,-0.037c-0.013,-0.009 -0.032,-0.014 -0.055,-0.014c-0.03,0 -0.054,0.009 -0.073,0.025c-0.018,0.016 -0.032,0.036 -0.041,0.06c-0.01,0.024 -0.016,0.048 -0.02,0.073c-0.003,0.025 -0.005,0.047 -0.005,0.065c0,0.018 0.003,0.034 0.008,0.049c0.006,0.015 0.015,0.026 0.029,0.035c0.013,0.008 0.031,0.012 0.055,0.012c0.025,0 0.047,-0.005 0.066,-0.015c0.019,-0.01 0.032,-0.024 0.039,-0.043l0.152,0.015c-0.017,0.05 -0.049,0.09 -0.097,0.121c-0.047,0.03 -0.105,0.046 -0.173,0.046Z" style="fill:#fff;fill-rule:nonzero;"/></g><g transform="matrix(161.717,0,0,161.717,440.941,179.975)"></g><g transform="matrix(1.96096,0,0,1.73191,-765.814,-485.633)"><g transform="matrix(50,0,0,50,585.59,446.46)"><path d="M0.273,0.012c-0.042,-0 -0.079,-0.013 -0.111,-0.037c-0.031,-0.025 -0.056,-0.059 -0.073,-0.102c-0.017,-0.043 -0.026,-0.091 -0.026,-0.144c0,-0.054 0.009,-0.102 0.026,-0.145c0.018,-0.042 0.042,-0.076 0.074,-0.101c0.031,-0.024 0.068,-0.037 0.11,-0.037c0.029,0 0.056,0.006 0.081,0.018c0.024,0.012 0.046,0.029 0.064,0.051c0.018,0.022 0.032,0.048 0.041,0.079l0.003,-0l-0,-0.322l0.022,0l0,0.728l-0.022,-0l-0,-0.137l-0.003,0c-0.009,0.031 -0.023,0.057 -0.041,0.079c-0.018,0.022 -0.04,0.04 -0.064,0.052c-0.024,0.012 -0.051,0.018 -0.081,0.018Zm0,-0.023c0.039,0 0.073,-0.011 0.101,-0.034c0.028,-0.023 0.05,-0.054 0.065,-0.094c0.015,-0.039 0.023,-0.083 0.023,-0.132c-0,-0.05 -0.008,-0.094 -0.023,-0.133c-0.016,-0.039 -0.038,-0.07 -0.066,-0.093c-0.028,-0.023 -0.061,-0.034 -0.1,-0.034c-0.038,-0 -0.071,0.011 -0.099,0.034c-0.028,0.023 -0.05,0.054 -0.065,0.093c-0.015,0.039 -0.023,0.083 -0.023,0.133c-0,0.049 0.008,0.093 0.023,0.132c0.015,0.04 0.037,0.071 0.065,0.094c0.028,0.023 0.061,0.034 0.099,0.034Z" style="fill:#bbb;fill-rule:nonzero;"/></g><g transform="matrix(50,0,0,50,614.642,446.46)"><path d="M0.097,-0l-0,-0.546l0.022,0l0,0.546l-0.022,-0Zm0.01,-0.67c-0.006,-0 -0.011,-0.003 -0.016,-0.007c-0.004,-0.005 -0.007,-0.01 -0.007,-0.016c0,-0.007 0.003,-0.012 0.007,-0.017c0.005,-0.004 0.01,-0.006 0.016,-0.006c0.007,-0 0.012,0.002 0.017,0.006c0.004,0.005 0.006,0.01 0.006,0.017c0,0.006 -0.002,0.011 -0.006,0.016c-0.005,0.004 -0.01,0.007 -0.017,0.007Z" style="fill:#bbb;fill-rule:nonzero;"/></g><g transform="matrix(50,0,0,50,625.433,446.46)"><rect x="0.097" y="-0.728" width="0.022" height="0.728" style="fill:#bbb;fill-rule:nonzero;"/></g><g transform="matrix(50,0,0,50,636.224,446.46)"></g><g transform="matrix(50,0,0,50,454.974,496.393)"><path d="M0.246,0.012c-0.032,-0 -0.061,-0.006 -0.085,-0.016c-0.025,-0.011 -0.045,-0.027 -0.061,-0.047c-0.016,-0.02 -0.027,-0.045 -0.034,-0.074l0.023,-0.005c0.008,0.038 0.025,0.068 0.052,0.088c0.027,0.021 0.062,0.031 0.105,0.031c0.047,0 0.086,-0.011 0.115,-0.035c0.03,-0.023 0.044,-0.054 0.044,-0.092c0,-0.028 -0.009,-0.052 -0.026,-0.071c-0.018,-0.019 -0.044,-0.033 -0.079,-0.042l-0.085,-0.021c-0.042,-0.011 -0.074,-0.028 -0.096,-0.052c-0.021,-0.023 -0.032,-0.052 -0.032,-0.086c-0,-0.029 0.007,-0.054 0.021,-0.075c0.015,-0.022 0.035,-0.039 0.06,-0.051c0.025,-0.012 0.055,-0.018 0.088,-0.018c0.028,0 0.053,0.005 0.075,0.014c0.021,0.009 0.04,0.023 0.055,0.041c0.016,0.018 0.028,0.041 0.037,0.068l-0.023,0.006c-0.011,-0.035 -0.028,-0.062 -0.052,-0.08c-0.024,-0.017 -0.055,-0.026 -0.092,-0.026c-0.044,-0 -0.079,0.011 -0.106,0.033c-0.027,0.022 -0.041,0.051 -0.041,0.088c0,0.028 0.009,0.052 0.027,0.072c0.019,0.02 0.046,0.034 0.083,0.044l0.086,0.021c0.039,0.01 0.07,0.027 0.091,0.05c0.021,0.023 0.032,0.051 0.032,0.085c-0,0.03 -0.008,0.056 -0.023,0.078c-0.016,0.023 -0.037,0.04 -0.065,0.053c-0.027,0.012 -0.058,0.019 -0.094,0.019Z" style="fill:#bbb;fill-rule:nonzero;"/></g><g transform="matrix(50,0,0,50,479.633,496.393)"><rect x="0.097" y="-0.546" width="0.022" height="0.546" style="fill:#bbb;fill-rule:nonzero;"/></g><g transform="matrix(50,0,0,50,490.424,496.393)"><path d="M0.119,-0.366l0,0.366l-0.022,-0l-0,-0.546l0.022,0l0,0.117l-0.006,0c0.012,-0.041 0.035,-0.073 0.07,-0.093c0.035,-0.021 0.073,-0.032 0.114,-0.032c0.037,0 0.07,0.008 0.099,0.024c0.028,0.016 0.051,0.038 0.067,0.066c0.016,0.028 0.024,0.06 0.024,0.098l0,0.366l-0.022,-0l-0,-0.366c-0,-0.05 -0.016,-0.09 -0.047,-0.12c-0.031,-0.03 -0.072,-0.045 -0.121,-0.045c-0.034,-0 -0.064,0.007 -0.091,0.021c-0.027,0.014 -0.048,0.034 -0.064,0.059c-0.015,0.024 -0.023,0.053 -0.023,0.085Z" style="fill:#bbb;fill-rule:nonzero;"/></g><g transform="matrix(50,0,0,50,519.623,496.393)"><path d="M0.221,0.012c-0.03,-0 -0.058,-0.006 -0.083,-0.019c-0.026,-0.012 -0.046,-0.03 -0.061,-0.054c-0.016,-0.024 -0.023,-0.053 -0.023,-0.086c-0,-0.019 0.003,-0.036 0.008,-0.053c0.006,-0.016 0.017,-0.031 0.032,-0.044c0.015,-0.013 0.036,-0.024 0.062,-0.034c0.027,-0.01 0.062,-0.017 0.104,-0.022c0.025,-0.003 0.049,-0.006 0.071,-0.01c0.023,-0.004 0.041,-0.009 0.054,-0.017c0.014,-0.008 0.021,-0.018 0.021,-0.032l0,-0.033c0,-0.028 -0.006,-0.052 -0.019,-0.073c-0.012,-0.021 -0.03,-0.037 -0.054,-0.049c-0.023,-0.011 -0.05,-0.017 -0.081,-0.017c-0.026,-0 -0.049,0.004 -0.071,0.011c-0.021,0.008 -0.04,0.019 -0.055,0.033c-0.016,0.015 -0.027,0.032 -0.035,0.052l-0.022,-0.008c0.009,-0.023 0.022,-0.043 0.04,-0.059c0.018,-0.017 0.039,-0.029 0.064,-0.038c0.024,-0.009 0.051,-0.014 0.079,-0.014c0.028,0 0.052,0.004 0.074,0.012c0.022,0.009 0.041,0.02 0.056,0.035c0.015,0.014 0.027,0.031 0.035,0.051c0.008,0.02 0.012,0.041 0.012,0.064l-0,0.392l-0.023,0l0,-0.11l-0.003,-0c-0.011,0.024 -0.025,0.045 -0.044,0.064c-0.018,0.018 -0.039,0.032 -0.062,0.042c-0.024,0.011 -0.049,0.016 -0.076,0.016Zm-0,-0.023c0.034,0 0.065,-0.009 0.093,-0.028c0.028,-0.019 0.051,-0.045 0.067,-0.078c0.017,-0.034 0.025,-0.072 0.025,-0.116l0,-0.082c-0.007,0.004 -0.015,0.009 -0.024,0.013c-0.009,0.004 -0.02,0.007 -0.031,0.01c-0.012,0.003 -0.024,0.005 -0.038,0.008c-0.014,0.002 -0.029,0.004 -0.044,0.006c-0.049,0.005 -0.088,0.014 -0.116,0.026c-0.028,0.011 -0.048,0.026 -0.059,0.043c-0.012,0.018 -0.018,0.038 -0.018,0.062c0,0.027 0.007,0.051 0.019,0.071c0.013,0.021 0.03,0.037 0.052,0.048c0.022,0.012 0.047,0.017 0.074,0.017Z" style="fill:#bbb;fill-rule:nonzero;"/></g><g transform="matrix(50,0,0,50,544.916,496.393)"><path d="M0.257,-0l-0.208,-0.546l0.023,0l0.146,0.382c0.01,0.025 0.019,0.05 0.028,0.075c0.009,0.025 0.019,0.05 0.029,0.074l-0.006,0c0.01,-0.024 0.02,-0.049 0.029,-0.074c0.009,-0.025 0.018,-0.05 0.028,-0.075l0.146,-0.382l0.023,0l-0.208,0.546l-0.03,-0Z" style="fill:#bbb;fill-rule:nonzero;"/></g><g transform="matrix(50,0,0,50,572.113,496.393)"><rect x="0.097" y="-0.728" width="0.022" height="0.728" style="fill:#bbb;fill-rule:nonzero;"/></g><g transform="matrix(50,0,0,50,582.904,496.393)"><path d="M0.221,0.012c-0.03,-0 -0.058,-0.006 -0.083,-0.019c-0.026,-0.012 -0.046,-0.03 -0.061,-0.054c-0.016,-0.024 -0.023,-0.053 -0.023,-0.086c-0,-0.019 0.003,-0.036 0.008,-0.053c0.006,-0.016 0.017,-0.031 0.032,-0.044c0.015,-0.013 0.036,-0.024 0.062,-0.034c0.027,-0.01 0.062,-0.017 0.104,-0.022c0.025,-0.003 0.049,-0.006 0.071,-0.01c0.023,-0.004 0.041,-0.009 0.054,-0.017c0.014,-0.008 0.021,-0.018 0.021,-0.032l0,-0.033c0,-0.028 -0.006,-0.052 -0.019,-0.073c-0.012,-0.021 -0.03,-0.037 -0.054,-0.049c-0.023,-0.011 -0.05,-0.017 -0.081,-0.017c-0.026,-0 -0.049,0.004 -0.071,0.011c-0.021,0.008 -0.04,0.019 -0.055,0.033c-0.016,0.015 -0.027,0.032 -0.035,0.052l-0.022,-0.008c0.009,-0.023 0.022,-0.043 0.04,-0.059c0.018,-0.017 0.039,-0.029 0.064,-0.038c0.024,-0.009 0.051,-0.014 0.079,-0.014c0.028,0 0.052,0.004 0.074,0.012c0.022,0.009 0.041,0.02 0.056,0.035c0.015,0.014 0.027,0.031 0.035,0.051c0.008,0.02 0.012,0.041 0.012,0.064l-0,0.392l-0.023,0l0,-0.11l-0.003,-0c-0.011,0.024 -0.025,0.045 -0.044,0.064c-0.018,0.018 -0.039,0.032 -0.062,0.042c-0.024,0.011 -0.049,0.016 -0.076,0.016Zm-0,-0.023c0.034,0 0.065,-0.009 0.093,-0.028c0.028,-0.019 0.051,-0.045 0.067,-0.078c0.017,-0.034 0.025,-0.072 0.025,-0.116l0,-0.082c-0.007,0.004 -0.015,0.009 -0.024,0.013c-0.009,0.004 -0.02,0.007 -0.031,0.01c-0.012,0.003 -0.024,0.005 -0.038,0.008c-0.014,0.002 -0.029,0.004 -0.044,0.006c-0.049,0.005 -0.088,0.014 -0.116,0.026c-0.028,0.011 -0.048,0.026 -0.059,0.043c-0.012,0.018 -0.018,0.038 -0.018,0.062c0,0.027 0.007,0.051 0.019,0.071c0.013,0.021 0.03,0.037 0.052,0.048c0.022,0.012 0.047,0.017 0.074,0.017Z" style="fill:#bbb;fill-rule:nonzero;"/></g><g transform="matrix(50,0,0,50,609.174,496.393)"><path d="M0.097,-0l-0,-0.546l0.022,0l0,0.087l0.003,0c0.013,-0.028 0.034,-0.051 0.063,-0.068c0.029,-0.017 0.063,-0.026 0.1,-0.026l0.012,0l-0,0.023l-0.012,-0c-0.032,-0 -0.06,0.007 -0.085,0.021c-0.025,0.014 -0.045,0.033 -0.059,0.058c-0.015,0.025 -0.022,0.053 -0.022,0.085l0,0.366l-0.022,-0Z" style="fill:#bbb;fill-rule:nonzero;"/></g><g transform="matrix(50,0,0,50,625.433,496.393)"><rect x="0.097" y="-0.546" width="0.022" height="0.546" style="fill:#bbb;fill-rule:nonzero;"/></g><g transform="matrix(50,0,0,50,636.224,496.393)"></g><g transform="matrix(50,0,0,50,412.103,546.326)"><path d="M0.221,0.012c-0.03,-0 -0.058,-0.006 -0.083,-0.019c-0.026,-0.012 -0.046,-0.03 -0.061,-0.054c-0.016,-0.024 -0.023,-0.053 -0.023,-0.086c-0,-0.019 0.003,-0.036 0.008,-0.053c0.006,-0.016 0.017,-0.031 0.032,-0.044c0.015,-0.013 0.036,-0.024 0.062,-0.034c0.027,-0.01 0.062,-0.017 0.104,-0.022c0.025,-0.003 0.049,-0.006 0.071,-0.01c0.023,-0.004 0.041,-0.009 0.054,-0.017c0.014,-0.008 0.021,-0.018 0.021,-0.032l0,-0.033c0,-0.028 -0.006,-0.052 -0.019,-0.073c-0.012,-0.021 -0.03,-0.037 -0.054,-0.049c-0.023,-0.011 -0.05,-0.017 -0.081,-0.017c-0.026,-0 -0.049,0.004 -0.071,0.011c-0.021,0.008 -0.04,0.019 -0.055,0.033c-0.016,0.015 -0.027,0.032 -0.035,0.052l-0.022,-0.008c0.009,-0.023 0.022,-0.043 0.04,-0.059c0.018,-0.017 0.039,-0.029 0.064,-0.038c0.024,-0.009 0.051,-0.014 0.079,-0.014c0.028,0 0.052,0.004 0.074,0.012c0.022,0.009 0.041,0.02 0.056,0.035c0.015,0.014 0.027,0.031 0.035,0.051c0.008,0.02 0.012,0.041 0.012,0.064l-0,0.392l-0.023,0l0,-0.11l-0.003,-0c-0.011,0.024 -0.025,0.045 -0.044,0.064c-0.018,0.018 -0.039,0.032 -0.062,0.042c-0.024,0.011 -0.049,0.016 -0.076,0.016Zm-0,-0.023c0.034,0 0.065,-0.009 0.093,-0.028c0.028,-0.019 0.051,-0.045 0.067,-0.078c0.017,-0.034 0.025,-0.072 0.025,-0.116l0,-0.082c-0.007,0.004 -0.015,0.009 -0.024,0.013c-0.009,0.004 -0.02,0.007 -0.031,0.01c-0.012,0.003 -0.024,0.005 -0.038,0.008c-0.014,0.002 -0.029,0.004 -0.044,0.006c-0.049,0.005 -0.088,0.014 -0.116,0.026c-0.028,0.011 -0.048,0.026 -0.059,0.043c-0.012,0.018 -0.018,0.038 -0.018,0.062c0,0.027 0.007,0.051 0.019,0.071c0.013,0.021 0.03,0.037 0.052,0.048c0.022,0.012 0.047,0.017 0.074,0.017Z" style="fill:#bbb;fill-rule:nonzero;"/></g><g transform="matrix(50,0,0,50,438.373,546.326)"><path d="M0.113,-0.22l0,-0.039l0.009,-0l0.29,-0.287l0.032,0l-0.248,0.245l-0.003,0.003l-0.08,0.078Zm-0.016,0.22l-0,-0.728l0.022,0l0,0.728l-0.022,-0Zm0.327,-0l-0.239,-0.301l0.017,-0.014l0.251,0.315l-0.029,-0Z" style="fill:#bbb;fill-rule:nonzero;"/></g><g transform="matrix(50,0,0,50,462.738,546.326)"><path d="M0.221,0.012c-0.03,-0 -0.058,-0.006 -0.083,-0.019c-0.026,-0.012 -0.046,-0.03 -0.061,-0.054c-0.016,-0.024 -0.023,-0.053 -0.023,-0.086c-0,-0.019 0.003,-0.036 0.008,-0.053c0.006,-0.016 0.017,-0.031 0.032,-0.044c0.015,-0.013 0.036,-0.024 0.062,-0.034c0.027,-0.01 0.062,-0.017 0.104,-0.022c0.025,-0.003 0.049,-0.006 0.071,-0.01c0.023,-0.004 0.041,-0.009 0.054,-0.017c0.014,-0.008 0.021,-0.018 0.021,-0.032l0,-0.033c0,-0.028 -0.006,-0.052 -0.019,-0.073c-0.012,-0.021 -0.03,-0.037 -0.054,-0.049c-0.023,-0.011 -0.05,-0.017 -0.081,-0.017c-0.026,-0 -0.049,0.004 -0.071,0.011c-0.021,0.008 -0.04,0.019 -0.055,0.033c-0.016,0.015 -0.027,0.032 -0.035,0.052l-0.022,-0.008c0.009,-0.023 0.022,-0.043 0.04,-0.059c0.018,-0.017 0.039,-0.029 0.064,-0.038c0.024,-0.009 0.051,-0.014 0.079,-0.014c0.028,0 0.052,0.004 0.074,0.012c0.022,0.009 0.041,0.02 0.056,0.035c0.015,0.014 0.027,0.031 0.035,0.051c0.008,0.02 0.012,0.041 0.012,0.064l-0,0.392l-0.023,0l0,-0.11l-0.003,-0c-0.011,0.024 -0.025,0.045 -0.044,0.064c-0.018,0.018 -0.039,0.032 -0.062,0.042c-0.024,0.011 -0.049,0.016 -0.076,0.016Zm-0,-0.023c0.034,0 0.065,-0.009 0.093,-0.028c0.028,-0.019 0.051,-0.045 0.067,-0.078c0.017,-0.034 0.025,-0.072 0.025,-0.116l0,-0.082c-0.007,0.004 -0.015,0.009 -0.024,0.013c-0.009,0.004 -0.02,0.007 -0.031,0.01c-0.012,0.003 -0.024,0.005 -0.038,0.008c-0.014,0.002 -0.029,0.004 -0.044,0.006c-0.049,0.005 -0.088,0.014 -0.116,0.026c-0.028,0.011 -0.048,0.026 -0.059,0.043c-0.012,0.018 -0.018,0.038 -0.018,0.062c0,0.027 0.007,0.051 0.019,0.071c0.013,0.021 0.03,0.037 0.052,0.048c0.022,0.012 0.047,0.017 0.074,0.017Z" style="fill:#bbb;fill-rule:nonzero;"/></g><g transform="matrix(50,0,0,50,489.008,546.326)"><path d="M0.273,0.012c-0.042,-0 -0.079,-0.013 -0.111,-0.037c-0.031,-0.025 -0.056,-0.059 -0.073,-0.102c-0.017,-0.043 -0.026,-0.091 -0.026,-0.144c0,-0.054 0.009,-0.102 0.026,-0.145c0.018,-0.042 0.042,-0.076 0.074,-0.101c0.031,-0.024 0.068,-0.037 0.11,-0.037c0.029,0 0.056,0.006 0.081,0.018c0.024,0.012 0.046,0.029 0.064,0.051c0.018,0.022 0.032,0.048 0.041,0.079l0.003,-0l-0,-0.322l0.022,0l0,0.728l-0.022,-0l-0,-0.137l-0.003,0c-0.009,0.031 -0.023,0.057 -0.041,0.079c-0.018,0.022 -0.04,0.04 -0.064,0.052c-0.024,0.012 -0.051,0.018 -0.081,0.018Zm0,-0.023c0.039,0 0.073,-0.011 0.101,-0.034c0.028,-0.023 0.05,-0.054 0.065,-0.094c0.015,-0.039 0.023,-0.083 0.023,-0.132c-0,-0.05 -0.008,-0.094 -0.023,-0.133c-0.016,-0.039 -0.038,-0.07 -0.066,-0.093c-0.028,-0.023 -0.061,-0.034 -0.1,-0.034c-0.038,-0 -0.071,0.011 -0.099,0.034c-0.028,0.023 -0.05,0.054 -0.065,0.093c-0.015,0.039 -0.023,0.083 -0.023,0.133c-0,0.049 0.008,0.093 0.023,0.132c0.015,0.04 0.037,0.071 0.065,0.094c0.028,0.023 0.061,0.034 0.099,0.034Z" style="fill:#bbb;fill-rule:nonzero;"/></g><g transform="matrix(50,0,0,50,518.06,546.326)"><path d="M0.301,0.012c-0.048,-0 -0.089,-0.013 -0.125,-0.038c-0.036,-0.025 -0.063,-0.058 -0.083,-0.101c-0.02,-0.043 -0.03,-0.091 -0.03,-0.144c0,-0.054 0.01,-0.102 0.03,-0.145c0.02,-0.042 0.047,-0.076 0.081,-0.101c0.034,-0.024 0.073,-0.037 0.116,-0.037c0.032,0 0.061,0.007 0.088,0.021c0.027,0.013 0.051,0.032 0.071,0.056c0.02,0.024 0.036,0.053 0.047,0.085c0.011,0.033 0.017,0.068 0.017,0.107l-0,0.013l-0.438,-0l0,-0.023l0.425,0l-0.009,0.01c-0,-0.046 -0.009,-0.087 -0.026,-0.124c-0.018,-0.038 -0.042,-0.067 -0.072,-0.089c-0.03,-0.022 -0.064,-0.033 -0.103,-0.033c-0.037,-0 -0.072,0.011 -0.102,0.033c-0.031,0.022 -0.056,0.053 -0.074,0.091c-0.019,0.038 -0.028,0.081 -0.028,0.13l-0,0.003c-0,0.047 0.008,0.091 0.025,0.131c0.017,0.04 0.041,0.072 0.073,0.096c0.032,0.024 0.071,0.036 0.117,0.036c0.034,0 0.062,-0.006 0.085,-0.018c0.023,-0.011 0.041,-0.025 0.055,-0.041c0.014,-0.015 0.024,-0.029 0.031,-0.039l0.018,0.012c-0.008,0.014 -0.02,0.029 -0.036,0.046c-0.016,0.017 -0.037,0.032 -0.062,0.044c-0.025,0.013 -0.056,0.019 -0.091,0.019Z" style="fill:#bbb;fill-rule:nonzero;"/></g><g transform="matrix(50,0,0,50,546.674,546.326)"><path d="M0.097,-0l-0,-0.546l0.022,0l0,0.129l-0.008,0c0.008,-0.032 0.02,-0.058 0.038,-0.078c0.018,-0.02 0.038,-0.035 0.061,-0.045c0.023,-0.009 0.047,-0.014 0.071,-0.014c0.041,0 0.075,0.013 0.104,0.038c0.028,0.026 0.046,0.061 0.053,0.107l-0.009,-0c0.006,-0.031 0.018,-0.057 0.034,-0.078c0.017,-0.022 0.037,-0.038 0.061,-0.05c0.025,-0.011 0.051,-0.017 0.08,-0.017c0.034,0 0.063,0.008 0.088,0.023c0.025,0.015 0.044,0.037 0.057,0.065c0.014,0.028 0.021,0.061 0.021,0.1l-0,0.366l-0.023,-0l0,-0.366c0,-0.053 -0.013,-0.094 -0.039,-0.122c-0.026,-0.029 -0.061,-0.043 -0.104,-0.043c-0.03,-0 -0.056,0.006 -0.081,0.019c-0.024,0.013 -0.043,0.032 -0.057,0.056c-0.015,0.025 -0.022,0.055 -0.022,0.09l0,0.366l-0.022,-0l-0,-0.366c-0,-0.053 -0.013,-0.094 -0.038,-0.122c-0.026,-0.029 -0.06,-0.043 -0.103,-0.043c-0.03,-0 -0.058,0.007 -0.082,0.021c-0.025,0.014 -0.044,0.034 -0.058,0.058c-0.015,0.025 -0.022,0.054 -0.022,0.086l0,0.366l-0.022,-0Z" style="fill:#bbb;fill-rule:nonzero;"/></g><g transform="matrix(50,0,0,50,589.984,546.326)"><path d="M0.097,-0l-0,-0.546l0.022,0l0,0.546l-0.022,-0Zm0.01,-0.67c-0.006,-0 -0.011,-0.003 -0.016,-0.007c-0.004,-0.005 -0.007,-0.01 -0.007,-0.016c0,-0.007 0.003,-0.012 0.007,-0.017c0.005,-0.004 0.01,-0.006 0.016,-0.006c0.007,-0 0.012,0.002 0.017,0.006c0.004,0.005 0.006,0.01 0.006,0.017c0,0.006 -0.002,0.011 -0.006,0.016c-0.005,0.004 -0.01,0.007 -0.017,0.007Z" style="fill:#bbb;fill-rule:nonzero;"/></g><g transform="matrix(50,0,0,50,600.775,546.326)"><path d="M0.246,0.012c-0.032,-0 -0.061,-0.006 -0.085,-0.016c-0.025,-0.011 -0.045,-0.027 -0.061,-0.047c-0.016,-0.02 -0.027,-0.045 -0.034,-0.074l0.023,-0.005c0.008,0.038 0.025,0.068 0.052,0.088c0.027,0.021 0.062,0.031 0.105,0.031c0.047,0 0.086,-0.011 0.115,-0.035c0.03,-0.023 0.044,-0.054 0.044,-0.092c0,-0.028 -0.009,-0.052 -0.026,-0.071c-0.018,-0.019 -0.044,-0.033 -0.079,-0.042l-0.085,-0.021c-0.042,-0.011 -0.074,-0.028 -0.096,-0.052c-0.021,-0.023 -0.032,-0.052 -0.032,-0.086c-0,-0.029 0.007,-0.054 0.021,-0.075c0.015,-0.022 0.035,-0.039 0.06,-0.051c0.025,-0.012 0.055,-0.018 0.088,-0.018c0.028,0 0.053,0.005 0.075,0.014c0.021,0.009 0.04,0.023 0.055,0.041c0.016,0.018 0.028,0.041 0.037,0.068l-0.023,0.006c-0.011,-0.035 -0.028,-0.062 -0.052,-0.08c-0.024,-0.017 -0.055,-0.026 -0.092,-0.026c-0.044,-0 -0.079,0.011 -0.106,0.033c-0.027,0.022 -0.041,0.051 -0.041,0.088c0,0.028 0.009,0.052 0.027,0.072c0.019,0.02 0.046,0.034 0.083,0.044l0.086,0.021c0.039,0.01 0.07,0.027 0.091,0.05c0.021,0.023 0.032,0.051 0.032,0.085c-0,0.03 -0.008,0.056 -0.023,0.078c-0.016,0.023 -0.037,0.04 -0.065,0.053c-0.027,0.012 -0.058,0.019 -0.094,0.019Z" style="fill:#bbb;fill-rule:nonzero;"/></g><g transform="matrix(50,0,0,50,625.433,546.326)"><path d="M0.097,-0l-0,-0.546l0.022,0l0,0.546l-0.022,-0Zm0.01,-0.67c-0.006,-0 -0.011,-0.003 -0.016,-0.007c-0.004,-0.005 -0.007,-0.01 -0.007,-0.016c0,-0.007 0.003,-0.012 0.007,-0.017c0.005,-0.004 0.01,-0.006 0.016,-0.006c0.007,-0 0.012,0.002 0.017,0.006c0.004,0.005 0.006,0.01 0.006,0.017c0,0.006 -0.002,0.011 -0.006,0.016c-0.005,0.004 -0.01,0.007 -0.017,0.007Z" style="fill:#bbb;fill-rule:nonzero;"/></g><g transform="matrix(50,0,0,50,636.224,546.326)"></g></g><rect x="12.818" y="15.121" width="484.364" height="469.757" style="fill:none;stroke:#bbb;stroke-width:1.46px;"/></svg>