<?xml version="1.0" encoding="UTF-8" standalone="no"?>
<!DOCTYPE svg PUBLIC "-//W3C//DTD SVG 1.1//EN" "http://www.w3.org/Graphics/SVG/1.1/DTD/svg11.dtd">
<svg width="100%" height="100%" viewBox="0 0 64 64" version="1.1" xmlns="http://www.w3.org/2000/svg" xmlns:xlink="http://www.w3.org/1999/xlink" xml:space="preserve" xmlns:serif="http://www.serif.com/" style="fill-rule:evenodd;clip-rule:evenodd;stroke-linecap:round;">
    <g transform="matrix(1,0,0,1,0.27451,11.9332)">
        <g transform="matrix(0.793747,0,0,0.774902,-7.47329,-3.31681)">
            <path d="M13.333,52L13.333,13.333C13.333,10.388 15.721,8 18.667,8L49.067,8C49.95,8 50.667,8.716 50.667,9.6L50.667,56" style="fill:none;fill-rule:nonzero;stroke:rgb(46,46,46);stroke-width:2.67px;"/>
        </g>
        <g transform="matrix(0.793747,0,0,0.774902,-7.47329,-3.31681)">
            <path d="M24,18.667L40,18.667" style="fill:none;fill-rule:nonzero;stroke:rgb(46,46,46);stroke-width:2.67px;"/>
        </g>
        <g transform="matrix(0.793747,0,0,0.774902,-7.47329,-3.31681)">
            <path d="M17.333,40L50.667,40" style="fill:none;fill-rule:nonzero;stroke:rgb(46,46,46);stroke-width:2.67px;"/>
        </g>
        <g transform="matrix(0.793747,0,0,0.774902,-7.47329,-3.31681)">
            <path d="M17.333,48L50.667,48" style="fill:none;fill-rule:nonzero;stroke:rgb(46,46,46);stroke-width:2.67px;"/>
        </g>
        <g transform="matrix(0.793747,0,0,0.774902,-7.47329,-3.31681)">
            <path d="M17.333,56L50.667,56" style="fill:none;fill-rule:nonzero;stroke:rgb(46,46,46);stroke-width:2.67px;"/>
        </g>
        <g transform="matrix(0.793747,0,0,0.774902,-7.47329,-3.31681)">
            <path d="M17.333,48C14.667,48 13.333,46.209 13.333,44C13.333,41.791 14.667,40 17.333,40" style="fill:none;fill-rule:nonzero;stroke:rgb(46,46,46);stroke-width:2.67px;stroke-linejoin:round;"/>
        </g>
        <g transform="matrix(0.793747,0,0,0.774902,-7.47329,-3.31681)">
            <path d="M17.333,56C14.667,56 13.333,54.209 13.333,52C13.333,49.791 14.667,48 17.333,48" style="fill:none;fill-rule:nonzero;stroke:rgb(46,46,46);stroke-width:2.67px;stroke-linejoin:round;"/>
        </g>
    </g>
    <g transform="matrix(0.425514,0,0,0.413735,48.5578,15.7904)">
        <g transform="matrix(1,0,0,1,-32,-32)">
            <clipPath id="_clip1">
                <rect x="0" y="0" width="64" height="64"/>
            </clipPath>
            <g clip-path="url(#_clip1)">
                <path d="M5.333,42.667L5.333,21.333C5.333,12.497 12.497,5.333 21.333,5.333L42.667,5.333C51.503,5.333 58.667,12.497 58.667,21.333L58.667,42.667C58.667,51.503 51.503,58.667 42.667,58.667L21.333,58.667C12.497,58.667 5.333,51.503 5.333,42.667Z" style="fill:none;fill-rule:nonzero;stroke:rgb(46,46,46);stroke-width:2.67px;stroke-linecap:butt;"/>
                <path d="M16,34.667L16,29.333C16,26.388 18.388,24 21.333,24L29.333,24C32.279,24 34.667,26.388 34.667,29.333L34.667,34.667C34.667,37.612 32.279,40 29.333,40L21.333,40C18.388,40 16,37.612 16,34.667Z" style="fill:none;fill-rule:nonzero;stroke:rgb(46,46,46);stroke-width:2.67px;stroke-linecap:butt;"/>
                <path d="M45.44,24.587L37.262,30.72C36.409,31.36 36.409,32.64 37.262,33.28L45.44,39.413C46.495,40.205 48,39.452 48,38.133L48,25.867C48,24.548 46.495,23.796 45.44,24.587Z" style="fill:none;fill-rule:nonzero;stroke:rgb(46,46,46);stroke-width:2.67px;stroke-linejoin:round;"/>
            </g>
        </g>
    </g>
    <g transform="matrix(0.506549,0,0,0.506549,48.5578,45.2395)">
        <g transform="matrix(1,0,0,1,-32,-32)">
            <path d="M17.988,10.667L46.169,10.667C46.169,10.667 43.82,46.019 32.078,46.019C26.342,46.019 22.848,37.583 20.774,28.952C18.602,19.916 17.988,10.667 17.988,10.667Z" style="fill:none;fill-rule:nonzero;stroke:rgb(46,46,46);stroke-width:2.67px;stroke-linejoin:round;"/>
            <path d="M46.169,10.667C46.169,10.667 48.625,8.046 50.667,8C54.667,7.909 55.406,10.667 55.406,10.667C56.189,12.292 56.815,16.518 53.058,20.419C49.3,24.32 45.094,27.733 43.382,28.952" style="fill:none;fill-rule:nonzero;stroke:rgb(46,46,46);stroke-width:2.67px;stroke-linejoin:round;"/>
            <path d="M17.987,10.667C17.987,10.667 15.428,8.016 13.333,8C9.333,7.969 8.594,10.667 8.594,10.667C7.811,12.292 7.185,16.518 10.942,20.419C14.7,24.32 19.062,27.733 20.773,28.953" style="fill:none;fill-rule:nonzero;stroke:rgb(46,46,46);stroke-width:2.67px;stroke-linejoin:round;"/>
            <path d="M22.684,53.333C22.684,48.457 32.078,46.019 32.078,46.019C32.078,46.019 41.472,48.457 41.472,53.333L22.684,53.333Z" style="fill:none;fill-rule:nonzero;stroke:rgb(46,46,46);stroke-width:2.67px;stroke-linejoin:round;"/>
        </g>
    </g>
</svg>
